<svg xmlns="http://www.w3.org/2000/svg" width="120.472" height="129.051" viewBox="0 0 120.472 129.051">
  <g id="그룹_799" data-name="그룹 799" transform="translate(-505.601 -3546.375)">
    <path id="패스_229" data-name="패스 229" d="M121.472,62.736A58.736,58.736,0,1,1,62.736,4,58.737,58.737,0,0,1,121.472,62.736Z" transform="translate(503.101 3552.453)" fill="none" stroke="#006eff" stroke-linecap="round" stroke-linejoin="round" stroke-width="3"/>
    <g id="그룹_795" data-name="그룹 795" transform="translate(495.218 3535.27)">
      <path id="패스_230" data-name="패스 230" d="M95.957,49.33,62.283,67.461,28.61,49.33,62.283,31.2Zm-67.346,0V89.479l33.673,18.132L95.957,89.479V49.33M62.283,107.611V67.461M62.283,4a7.771,7.771,0,1,0,7.771,7.771A7.772,7.772,0,0,0,62.283,4ZM5.042,106.317A7.771,7.771,0,1,0,7.887,95.7,7.771,7.771,0,0,0,5.042,106.317Zm114.482-1.3a7.77,7.77,0,1,0-10.614,2.844A7.77,7.77,0,0,0,119.524,105.022ZM62.283,19.542V31.2M28.61,89.479,18.5,98.547m77.455-9.068,10.361,7.771" transform="translate(8.605 8.605)" fill="none" stroke="#006eff" stroke-linecap="round" stroke-linejoin="round" stroke-width="3"/>
    </g>
  </g>
</svg>
