<svg xmlns="http://www.w3.org/2000/svg" width="89.85" height="128.736" viewBox="0 0 89.85 128.736">
  <g id="그룹_793" data-name="그룹 793" transform="translate(-0.008 -0.6)">
    <g id="그룹_794" data-name="그룹 794" transform="translate(2.1 2.1)">
      <path id="패스_231" data-name="패스 231" d="M89.667,26.108,46.834,48.215,4,26.108,46.834,4ZM4,26.108V78.614l42.834,22.107L89.667,78.614V26.108M6.77,88.333l40.064,20.678L86.9,88.33M46.834,48.215v52.505M10.811,73.779,4,78.614M19.661,67.5l10.706-7.6M54.6,53.731l-7.769-5.516L39.16,53.662M73.1,66.856,62.451,59.3M89.667,78.614l-7.81-5.543M46.834,39.925v8.29m0-26.253v8.291M46.834,4v8.29M66.177,118.684H63.414V117.3a4.139,4.139,0,0,0-4.146-4.145H35.78a4.139,4.139,0,0,0-4.146,4.145v1.383H27.49a4.139,4.139,0,0,0-4.146,4.145v2.763a4.14,4.14,0,0,0,4.146,4.146H66.177a4.14,4.14,0,0,0,4.146-4.146v-2.763A4.139,4.139,0,0,0,66.177,118.684Z" transform="translate(-4 -4.001)" fill="none" stroke="#006eff" stroke-linecap="round" stroke-linejoin="round" stroke-width="3"/>
    </g>
  </g>
</svg>
