<svg xmlns="http://www.w3.org/2000/svg" width="138" height="138" viewBox="0 0 138 138">
  <g id="그룹_306" data-name="그룹 306" transform="translate(-1302.5 -3663)">
    <g id="사각형_118" data-name="사각형 118" transform="translate(1302.5 3663)" fill="#fff" stroke="#707070" stroke-width="1" opacity="0">
      <rect width="138" height="138" stroke="none"/>
      <rect x="0.5" y="0.5" width="137" height="137" fill="none"/>
    </g>
    <path id="_54" data-name="54" d="M1657.172,3317.525v-52.348l49.854-21.187,49.854,21.187v52.348m-94.736-35.765-4.972,2.113m20-8.5-7.556,3.211m24.842-10.557-7.991,3.4M1712,3264.8l-4.974-2.113-4.962,2.11m17.384,3.17,6.189,2.63m17.639,7.5-7.582-3.222m16.193,6.881,4.993,2.122m-94.782,16.6-4.927,2.094m12.57-5.341,8.656-3.679m16.1-6.844-8.565,3.639m25.977-6.886-4.887-2.077-4.972,2.114m24.829,6.327-8.565-3.639m24.921,10.59-7.625-3.24m21.267,9.036-4.951-2.1m-44.9-4.128-49.854,21.188,49.854,21.188,49.854-21.187Zm-17.449,7.478L1739.431,3325m-64.81-14.956,47.361,22.435M1674.62,3325l49.854-21.187m-32.406,28.667,49.854-21.189m-14.956,32.436c21.129-2.68,36.145-9.5,36.145-17.479,0-3.091-2.25-6.005-6.234-8.574m-99.707,0c-3.983,2.567-6.232,5.482-6.232,8.572,0,9.906,23.115,18.014,52.347,18.655m-7.478,5.025,7.478-4.985-7.478-4.984" transform="translate(-336.091 435.04)" fill="none" stroke="#111833" stroke-linecap="round" stroke-linejoin="round" stroke-width="4"/>
  </g>
</svg>
