<svg id="그룹_307" data-name="그룹 307" xmlns="http://www.w3.org/2000/svg" width="151" height="135.152" viewBox="0 0 151 135.152">
  <g id="사각형_118" data-name="사각형 118" transform="translate(6)" fill="#fff" stroke="#707070" stroke-width="1" opacity="0">
    <rect width="138" height="135.152" stroke="none"/>
    <rect x="0.5" y="0.5" width="137" height="134.152" fill="none"/>
  </g>
  <g id="타원_19" data-name="타원 19" transform="translate(28 22)" fill="none" stroke="#111833" stroke-width="4">
    <ellipse cx="47" cy="45.576" rx="47" ry="45.576" stroke="none"/>
    <ellipse cx="47" cy="45.576" rx="45" ry="43.576" fill="none"/>
  </g>
  <path id="패스_37" data-name="패스 37" d="M1765.42,3504.6l11.811-7.873-11.811-7.874" transform="translate(-1696.386 -3472.921)" fill="none" stroke="#111833" stroke-linecap="round" stroke-linejoin="round" stroke-width="4"/>
  <path id="패스_38" data-name="패스 38" d="M1777.23,3504.6l-11.811-7.873,11.811-7.874" transform="translate(-1696.386 -3384.934)" fill="none" stroke="#111833" stroke-linecap="round" stroke-linejoin="round" stroke-width="4"/>
  <g id="타원_20" data-name="타원 20" transform="translate(0 39.558)" fill="#f2f2f2" stroke="#111833" stroke-width="4">
    <circle cx="28.5" cy="28.5" r="28.5" stroke="none"/>
    <circle cx="28.5" cy="28.5" r="26.5" fill="none"/>
  </g>
  <g id="타원_21" data-name="타원 21" transform="translate(94 39.558)" fill="#f2f2f2" stroke="#111833" stroke-width="4">
    <circle cx="28.5" cy="28.5" r="28.5" stroke="none"/>
    <circle cx="28.5" cy="28.5" r="26.5" fill="none"/>
  </g>
  <g id="그룹_308" data-name="그룹 308" transform="translate(108 50.575)">
    <path id="패스_39" data-name="패스 39" d="M763.719,2345.527l14.664-9.427,14.664,9.427-14.664,9.427Z" transform="translate(-763.719 -2320.912)" fill="none" stroke="#111833" stroke-linecap="round" stroke-linejoin="round" stroke-width="4"/>
    <path id="패스_40" data-name="패스 40" d="M763.719,2417.955v-15.188l14.664-9.427,14.664,9.427v15.188" transform="translate(-763.719 -2393.34)" fill="none" stroke="#111833" stroke-linecap="round" stroke-linejoin="round" stroke-width="4"/>
    <line id="선_35" data-name="선 35" y1="15.188" transform="translate(14.664)" fill="none" stroke="#111833" stroke-linecap="round" stroke-linejoin="round" stroke-width="4"/>
  </g>
  <g id="사각형_130" data-name="사각형 130" transform="translate(15 51.562)" fill="#fff" stroke="#111833" stroke-width="4">
    <rect width="28" height="33" rx="3" stroke="none"/>
    <rect x="2" y="2" width="24" height="29" rx="1" fill="none"/>
  </g>
  <line id="선_36" data-name="선 36" x2="11" transform="translate(23.5 60.231)" fill="none" stroke="#111833" stroke-linecap="round" stroke-width="4"/>
  <line id="선_37" data-name="선 37" x2="11" transform="translate(23.5 66.107)" fill="none" stroke="#111833" stroke-linecap="round" stroke-width="4"/>
  <line id="선_38" data-name="선 38" x2="6" transform="translate(25.5 71.983)" fill="none" stroke="#111833" stroke-linecap="round" stroke-width="4"/>
</svg>
