<svg xmlns="http://www.w3.org/2000/svg" width="42.634" height="45.087" viewBox="0 0 42.634 45.087">
  <g id="그룹_302" data-name="그룹 302" transform="translate(2.68 1.5)">
    <g id="사각형_122" data-name="사각형 122" transform="translate(-0.51 1.7)" fill="none" stroke="#006eff" stroke-width="3">
      <path d="M16,0h6.137a16,16,0,0,1,16,16v8.75a0,0,0,0,1,0,0H0a0,0,0,0,1,0,0V16A16,16,0,0,1,16,0Z" stroke="none"/>
      <path d="M16,1.5h6.137A14.5,14.5,0,0,1,36.637,16v7.25a0,0,0,0,1,0,0H1.5a0,0,0,0,1,0,0V16A14.5,14.5,0,0,1,16,1.5Z" fill="none"/>
    </g>
    <line id="선_27" data-name="선 27" y2="10.632" transform="translate(18.559)" fill="none" stroke="#006eff" stroke-linecap="round" stroke-width="3"/>
    <line id="선_29" data-name="선 29" y2="4.632" transform="translate(18.559 31)" fill="none" stroke="#006eff" stroke-linecap="round" stroke-width="3"/>
    <line id="선_28" data-name="선 28" x1="39.634" transform="translate(-1.18 19.84)" fill="none" stroke="#006eff" stroke-linecap="round" stroke-width="3"/>
    <circle id="타원_16" data-name="타원 16" cx="2.5" cy="2.5" r="2.5" transform="translate(8.32 28.132)" fill="#006eff"/>
    <circle id="타원_17" data-name="타원 17" cx="2.5" cy="2.5" r="2.5" transform="translate(23.32 28.132)" fill="#006eff"/>
    <path id="패스_35" data-name="패스 35" d="M13.32,39.476l4.563,2.414,4.563-2.414" transform="translate(0.754)" fill="none" stroke="#006eff" stroke-linecap="round" stroke-width="3"/>
  </g>
</svg>
